<?xml version="1.0" encoding="utf-8"?>
<!-- Generator: Adobe Illustrator 16.0.3, SVG Export Plug-In . SVG Version: 6.00 Build 0)  -->
<!DOCTYPE svg PUBLIC "-//W3C//DTD SVG 1.1//EN" "http://www.w3.org/Graphics/SVG/1.1/DTD/svg11.dtd">
<svg version="1.1" id="Layer_1" xmlns="http://www.w3.org/2000/svg" xmlns:xlink="http://www.w3.org/1999/xlink" x="0px" y="0px"
	 width="576px" height="576px" viewBox="0 0 576 576" enable-background="new 0 0 576 576" xml:space="preserve">
<path fill="#0096FF" d="M571.68,225.072L571.68,225.072c-1.872-2.16-4.752-3.456-7.632-3.456H429.696c-0.288,0-0.433,0-0.576,0.144
	c-0.145,0-0.288,0-0.432,0c-0.288,0-0.721,0-1.009,0c-53.712,0-101.664,41.76-109.584,95.328l-49.968,43.344l41.904-273.6v-0.288
	l0,0l3.6-23.616c0.433-2.88-0.432-5.904-2.304-8.063c-1.872-2.448-4.608-3.744-7.633-3.744H265.68
	c-5.184,0-9.648,3.888-10.368,8.928l-6.624,43.488c-10.224,65.088-71.568,118.08-136.656,118.08h-1.44l6.48-42.192
	c2.016-13.536,10.224-20.592,24.048-20.88h18.864c5.184,0,9.648-3.888,10.368-8.928l5.76-38.016c0.432-2.88-0.432-5.904-2.304-8.064
	c-1.872-2.16-4.752-3.456-7.632-3.456h-19.008c-30.96,0-80.064,20.448-88.704,76.896l-6.912,44.784H30.96
	c-3.744,0-7.344,2.016-9.216,5.328l-18.432,32.4c-2.16,3.744-1.728,8.496,1.008,11.664l33.696,39.745L17.424,445.104
	c-5.904,38.881,10.224,68.545,42.336,77.473c6.192,1.728,12.816,2.592,19.584,2.592c29.232,0,58.896-15.84,77.616-41.328
	c15.12-20.736,43.2-77.328-22.896-155.376l-33.84-39.743l1.296-8.353h4.176c42.912,0,86.256-15.552,122.688-44.064l-20.736,135.648
	c-2.304,14.688,1.44,28.512,10.368,38.88c8.928,10.368,21.744,16.128,36.288,16.128c14.112,0,28.224-5.472,39.6-15.264
	l35.855-31.104c3.456,5.904,7.345,11.376,11.809,16.128c17.855,19.584,42.912,30.24,70.416,30.24
	c56.304,0,105.84-45.792,110.447-101.952c1.296-15.408-1.008-30.816-6.479-44.64h41.904c5.184,0,9.647-3.888,10.367-8.928
	l5.761-38.016C574.416,230.256,573.552,227.376,571.68,225.072 M415.44,368.208c-11.664,0-22.177-4.464-29.664-12.672
	c-7.488-8.208-11.089-19.152-10.225-30.673c2.017-24.623,23.616-44.639,48.24-44.639c11.664,0,22.176,4.464,29.664,12.672
	c7.488,8.207,11.088,19.151,10.224,30.672C461.664,348.191,440.064,368.208,415.44,368.208 M110.304,452.88
	c-8.352,11.521-22.32,14.977-29.088,13.104c-1.872-0.576-7.776-2.16-5.328-18.288l11.952-78.048
	C115.776,403.056,124.128,434.016,110.304,452.88"/>
</svg>
